<svg width="135" height="35" viewBox="0 0 135 35" fill="none" xmlns="http://www.w3.org/2000/svg">
<g clip-path="url(#clip0_7115_30460)">
<path d="M24.2463 16.1648C24.078 16.1649 23.9153 16.1039 23.7885 15.9931C23.6617 15.8824 23.5794 15.7294 23.5568 15.5626L22.8823 10.1939C22.8393 9.85108 22.7156 9.52335 22.5214 9.23757C22.3273 8.9518 22.0681 8.71612 21.7652 8.54987L19.4106 7.25512C19.3642 7.23236 19.3127 7.22194 19.2611 7.22485C19.2095 7.22776 19.1595 7.2439 19.1159 7.27173C19.0724 7.29956 19.0367 7.33814 19.0124 7.38375C18.988 7.42935 18.9759 7.48046 18.977 7.53213L19.5943 15.5957C19.5996 15.6683 19.59 15.7412 19.566 15.8098C19.542 15.8785 19.5041 15.9415 19.4546 15.9949C19.4052 16.0483 19.3453 16.0909 19.2787 16.1201C19.212 16.1494 19.1401 16.1646 19.0673 16.1648H16.8602C16.727 16.1652 16.5986 16.115 16.5008 16.0245C16.4031 15.934 16.3432 15.8099 16.3333 15.677L15.6829 6.94498L15.5143 4.68068C15.5157 4.67474 15.5157 4.66855 15.5143 4.66261C15.4922 4.48221 15.4044 4.31625 15.2679 4.19632C15.1313 4.07639 14.9554 4.01087 14.7736 4.01223H12.2082C12.0237 4.01217 11.8458 4.08097 11.7093 4.20516C11.5729 4.32935 11.4877 4.5 11.4705 4.68369C11.4691 4.68963 11.4691 4.69582 11.4705 4.70176L11.3019 6.96606L10.6515 15.6981C10.6409 15.8307 10.5808 15.9544 10.4832 16.0448C10.3856 16.1352 10.2576 16.1855 10.1245 16.1859H7.9024C7.82964 16.1856 7.7577 16.1705 7.69107 16.1412C7.62444 16.112 7.56453 16.0694 7.5151 16.016C7.46567 15.9626 7.42777 15.8996 7.40375 15.8309C7.37972 15.7622 7.37009 15.6893 7.37547 15.6168L7.97767 7.56526C7.97882 7.51358 7.96664 7.46247 7.94231 7.41687C7.91798 7.37126 7.88231 7.33268 7.83875 7.30485C7.79519 7.27702 7.7452 7.26088 7.69359 7.25797C7.64198 7.25506 7.5905 7.26548 7.54408 7.28824L5.21354 8.57094C4.91067 8.7372 4.65151 8.97287 4.45733 9.25865C4.26314 9.54442 4.13947 9.87216 4.09644 10.215L3.428 15.5776C3.4054 15.7445 3.32307 15.8974 3.19627 16.0082C3.06947 16.1189 2.9068 16.1799 2.73846 16.1798H1.16971C1.01958 16.1798 0.875603 16.2395 0.769443 16.3456C0.663284 16.4518 0.603638 16.5958 0.603638 16.7459V18.8536C0.603669 18.9946 0.656052 19.1306 0.750624 19.2352C0.845197 19.3398 0.975228 19.4055 1.11552 19.4197L13.1597 20.576C13.3869 20.6 13.616 20.6 13.8432 20.576L25.8873 19.4197C26.0274 19.4049 26.157 19.339 26.2515 19.2345C26.3459 19.1301 26.3985 18.9945 26.3992 18.8536V16.7459C26.3992 16.5958 26.3396 16.4518 26.2334 16.3456C26.1273 16.2395 25.9833 16.1798 25.8331 16.1798L24.2463 16.1648Z" fill="#476BE1"/>
<path d="M19.8111 22.241C19.7196 22.2503 19.6339 22.2901 19.5678 22.354C19.5017 22.4179 19.4591 22.5022 19.4467 22.5933C19.2229 24.01 18.5008 25.3003 17.4103 26.232C16.3199 27.1637 14.9327 27.6756 13.4984 27.6756C12.0641 27.6756 10.6769 27.1637 9.58647 26.232C8.49602 25.3003 7.77392 24.01 7.5501 22.5933C7.53838 22.5024 7.4963 22.4182 7.43072 22.3542C7.36514 22.2903 7.27989 22.2504 7.18877 22.241L4.47884 21.979C4.39898 21.979 4.3224 22.0107 4.26593 22.0672C4.20946 22.1237 4.17773 22.2003 4.17773 22.2801C4.31941 24.6553 5.36278 26.8867 7.09462 28.5183C8.82646 30.1499 11.116 31.0586 13.4954 31.0586C15.8748 31.0586 18.1643 30.1499 19.8962 28.5183C21.628 26.8867 22.6714 24.6553 22.8131 22.2801C22.8131 22.2003 22.7813 22.1237 22.7249 22.0672C22.6684 22.0107 22.5918 21.979 22.512 21.979L19.8111 22.241Z" fill="#3D58B4"/>
</g>
<path d="M34.2848 25V10.1442H41.5321C42.4957 10.1442 43.3054 10.3114 43.9612 10.646C44.6304 10.9672 45.1323 11.4089 45.4669 11.971C45.8148 12.5197 45.9888 13.1287 45.9888 13.7979C45.9888 14.4269 45.8751 14.9556 45.6475 15.3838C45.42 15.8121 45.1323 16.1601 44.7843 16.4278C44.4363 16.6954 44.0817 16.8761 43.7203 16.9698V17.1505C44.095 17.2308 44.5032 17.4048 44.9449 17.6725C45.4 17.9401 45.7881 18.3283 46.1093 18.8368C46.4439 19.332 46.6112 19.9744 46.6112 20.7641C46.6112 21.4734 46.4439 22.1493 46.1093 22.7917C45.7881 23.4341 45.2661 23.9628 44.5434 24.3777C43.8207 24.7926 42.8704 25 41.6927 25H34.2848ZM40.8696 13.035H37.7579V16.0664H40.8696C41.4718 16.0664 41.9135 15.9259 42.1946 15.6448C42.489 15.3504 42.6362 14.9823 42.6362 14.5407C42.6362 14.1124 42.489 13.7577 42.1946 13.4767C41.9135 13.1822 41.4718 13.035 40.8696 13.035ZM41.1306 18.6762H37.7579V22.1091H41.1306C41.8131 22.1091 42.315 21.9485 42.6362 21.6273C42.9574 21.2927 43.118 20.8711 43.118 20.3626C43.118 19.8808 42.9574 19.4792 42.6362 19.158C42.315 18.8368 41.8131 18.6762 41.1306 18.6762ZM51.2226 25.2008C50.4463 25.2008 49.8173 25.0402 49.3355 24.7189C48.867 24.3844 48.5191 23.9494 48.2915 23.414C48.064 22.8653 47.9503 22.263 47.9503 21.6072V14.36H51.343V20.8444C51.343 21.2994 51.4635 21.6742 51.7044 21.9686C51.9453 22.263 52.3066 22.4103 52.7885 22.4103C53.3372 22.4103 53.7253 22.2296 53.9528 21.8682C54.1937 21.4935 54.3142 21.0719 54.3142 20.6035V14.36H57.7471V25H54.3142V23.4943H54.1937C53.9261 23.9628 53.5513 24.3643 53.0695 24.6989C52.5877 25.0335 51.9721 25.2008 51.2226 25.2008ZM61.2945 13.0952C60.719 13.0952 60.2439 12.9079 59.8691 12.5331C59.4944 12.1584 59.307 11.7167 59.307 11.2082C59.307 10.6728 59.4944 10.2178 59.8691 9.84302C60.2439 9.46828 60.719 9.2809 61.2945 9.2809C61.87 9.2809 62.3451 9.46828 62.7199 9.84302C63.0946 10.2178 63.282 10.6728 63.282 11.2082C63.282 11.7167 63.0946 12.1584 62.7199 12.5331C62.3451 12.9079 61.87 13.0952 61.2945 13.0952ZM59.568 25V14.36H63.0009V25H59.568ZM65.0419 25V9.74264H68.4748V25H65.0419ZM74.578 25.2008C73.8018 25.2008 73.1259 25.0468 72.5504 24.739C71.9749 24.4178 71.4931 23.9962 71.105 23.4743C70.7168 22.9389 70.4291 22.3433 70.2417 21.6875C70.0544 21.0317 69.9607 20.3626 69.9607 19.68C69.9607 18.9974 70.0544 18.3283 70.2417 17.6725C70.4291 17.0167 70.7168 16.4278 71.105 15.9058C71.4931 15.3705 71.9749 14.9489 72.5504 14.6411C73.1259 14.3198 73.8018 14.1592 74.578 14.1592C75.274 14.1592 75.8361 14.273 76.2644 14.5005C76.706 14.728 77.0339 14.9623 77.2481 15.2032C77.4756 15.4307 77.6027 15.5712 77.6295 15.6248H77.7901V9.74264H81.223V25H77.7901V23.7352H77.6295C77.6027 23.7888 77.4756 23.936 77.2481 24.1769C77.0339 24.4178 76.706 24.652 76.2644 24.8795C75.8361 25.0937 75.274 25.2008 74.578 25.2008ZM75.6621 22.4504C76.1573 22.4504 76.5655 22.3166 76.8867 22.0489C77.2213 21.7678 77.4689 21.4199 77.6295 21.005C77.8035 20.5767 77.8905 20.135 77.8905 19.68C77.8905 19.225 77.8035 18.79 77.6295 18.3751C77.4689 17.9468 77.2213 17.5988 76.8867 17.3312C76.5655 17.0501 76.1573 16.9096 75.6621 16.9096C75.1669 16.9096 74.752 17.0501 74.4174 17.3312C74.0828 17.5988 73.8352 17.9468 73.6746 18.3751C73.514 18.79 73.4337 19.225 73.4337 19.68C73.4337 20.135 73.514 20.5767 73.6746 21.005C73.8352 21.4199 74.0828 21.7678 74.4174 22.0489C74.752 22.3166 75.1669 22.4504 75.6621 22.4504ZM87.2025 25.2008C86.3861 25.2008 85.7102 25.087 85.1749 24.8595C84.6529 24.6319 84.238 24.3509 83.9302 24.0163C83.6224 23.6683 83.3949 23.327 83.2477 22.9925C83.1004 22.6445 83.0067 22.3567 82.9666 22.1292C82.9264 21.9017 82.9064 21.7879 82.9064 21.7879H84.8336C84.8336 21.7879 84.8537 21.8816 84.8938 22.069C84.9474 22.243 85.0478 22.4504 85.195 22.6913C85.3556 22.9188 85.5965 23.1263 85.9177 23.3137C86.2523 23.4876 86.6939 23.5746 87.2427 23.5746C87.8717 23.5746 88.3602 23.4274 88.7082 23.133C89.0562 22.8252 89.2301 22.4504 89.2301 22.0088C89.2301 21.6206 89.0896 21.3128 88.8086 21.0853C88.5409 20.8578 88.1528 20.6838 87.6442 20.5633L86.1987 20.222C85.6634 20.0882 85.1615 19.9075 84.6931 19.68C84.2247 19.4525 83.8432 19.1447 83.5488 18.7565C83.2677 18.355 83.1272 17.8598 83.1272 17.2709C83.1272 16.3609 83.4685 15.6181 84.151 15.0426C84.8336 14.4537 85.7236 14.1592 86.8211 14.1592C87.5572 14.1592 88.1661 14.2663 88.648 14.4805C89.1298 14.6812 89.5112 14.9355 89.7923 15.2433C90.0867 15.5511 90.3008 15.859 90.4347 16.1668C90.5819 16.4746 90.6756 16.7356 90.7157 16.9497C90.7559 17.1505 90.776 17.2509 90.776 17.2509H88.929C88.929 17.2509 88.9089 17.1773 88.8688 17.03C88.8286 16.8694 88.7349 16.6954 88.5877 16.5081C88.4539 16.3073 88.2464 16.1333 87.9654 15.9861C87.6843 15.8255 87.3096 15.7452 86.8412 15.7452C86.1987 15.7452 85.7303 15.8924 85.4359 16.1869C85.1414 16.4813 84.9942 16.8025 84.9942 17.1505C84.9942 17.4851 85.1281 17.7594 85.3957 17.9736C85.6768 18.1743 86.0381 18.3283 86.4798 18.4353L87.9453 18.7766C88.8554 18.9907 89.6049 19.3454 90.1938 19.8406C90.796 20.3224 91.0972 21.0184 91.0972 21.9285C91.0972 22.5173 90.9433 23.0661 90.6354 23.5746C90.3276 24.0698 89.8859 24.4647 89.3104 24.7591C88.7349 25.0535 88.0323 25.2008 87.2025 25.2008ZM97.7431 25.2008C96.8731 25.2008 96.1103 25.0468 95.4545 24.739C94.7987 24.4178 94.2499 23.9962 93.8083 23.4743C93.38 22.9389 93.0521 22.3433 92.8246 21.6875C92.6105 21.0317 92.5034 20.3626 92.5034 19.68C92.5034 18.9974 92.6105 18.3349 92.8246 17.6925C93.0387 17.0367 93.3599 16.4412 93.7882 15.9058C94.2299 15.3705 94.7786 14.9489 95.4344 14.6411C96.0902 14.3198 96.8598 14.1592 97.7431 14.1592C98.5996 14.1592 99.309 14.2864 99.8711 14.5407C100.433 14.795 100.882 15.1162 101.216 15.5043C101.564 15.879 101.818 16.2605 101.979 16.6486C102.153 17.0233 102.267 17.3379 102.32 17.5922C102.374 17.8464 102.401 17.9736 102.401 17.9736H100.554C100.554 17.9736 100.52 17.8665 100.453 17.6524C100.386 17.4249 100.259 17.1706 100.072 16.8895C99.8845 16.6085 99.6034 16.3609 99.2287 16.1467C98.8539 15.9192 98.3587 15.8054 97.7431 15.8054C97.007 15.8054 96.3846 15.9928 95.8761 16.3675C95.3809 16.7289 95.0061 17.204 94.7518 17.7929C94.5109 18.3818 94.3905 19.0108 94.3905 19.68C94.3905 20.3492 94.5109 20.9782 94.7518 21.5671C95.0061 22.156 95.3809 22.6378 95.8761 23.0125C96.3846 23.3739 97.007 23.5546 97.7431 23.5546C98.3587 23.5546 98.8539 23.4475 99.2287 23.2334C99.6034 23.0058 99.8845 22.7515 100.072 22.4705C100.259 22.1894 100.386 21.9418 100.453 21.7277C100.52 21.5002 100.554 21.3864 100.554 21.3864H102.401C102.401 21.3864 102.374 21.5136 102.32 21.7678C102.267 22.0221 102.153 22.3433 101.979 22.7315C101.818 23.1062 101.564 23.4876 101.216 23.8758C100.882 24.2505 100.433 24.565 99.8711 24.8193C99.309 25.0736 98.5996 25.2008 97.7431 25.2008ZM109.453 25.2008C108.315 25.2008 107.358 24.9398 106.582 24.4178C105.806 23.8825 105.217 23.1932 104.815 22.35C104.414 21.5069 104.213 20.6169 104.213 19.68C104.213 18.7298 104.414 17.8397 104.815 17.01C105.217 16.1668 105.806 15.4842 106.582 14.9623C107.358 14.4269 108.315 14.1592 109.453 14.1592C110.59 14.1592 111.547 14.4269 112.324 14.9623C113.1 15.4842 113.689 16.1668 114.09 17.01C114.492 17.8397 114.692 18.7298 114.692 19.68C114.692 20.6169 114.492 21.5069 114.09 22.35C113.689 23.1932 113.1 23.8825 112.324 24.4178C111.547 24.9398 110.59 25.2008 109.453 25.2008ZM109.453 23.5345C110.175 23.5345 110.778 23.3538 111.26 22.9925C111.755 22.6177 112.123 22.1359 112.364 21.547C112.618 20.9581 112.745 20.3358 112.745 19.68C112.745 19.0108 112.618 18.3885 112.364 17.813C112.123 17.2241 111.755 16.749 111.26 16.3876C110.778 16.0129 110.175 15.8255 109.453 15.8255C108.743 15.8255 108.141 16.0129 107.646 16.3876C107.151 16.749 106.776 17.2241 106.522 17.813C106.281 18.3885 106.16 19.0108 106.16 19.68C106.16 20.3358 106.281 20.9581 106.522 21.547C106.776 22.1359 107.151 22.6177 107.646 22.9925C108.141 23.3538 108.743 23.5345 109.453 23.5345ZM120.165 25.2008C119.108 25.2008 118.265 24.8729 117.636 24.2171C117.006 23.5613 116.692 22.6512 116.692 21.4868V14.36H118.599V21.3864C118.599 22.0824 118.787 22.6177 119.161 22.9925C119.549 23.3672 120.058 23.5546 120.687 23.5546C121.329 23.5546 121.845 23.3873 122.233 23.0527C122.621 22.7181 122.902 22.2898 123.076 21.7678C123.25 21.2459 123.337 20.7105 123.337 20.1618V14.36H125.244V25H123.337V23.4743H123.217C123.136 23.6349 122.982 23.8557 122.755 24.1368C122.527 24.4044 122.206 24.652 121.791 24.8795C121.376 25.0937 120.834 25.2008 120.165 25.2008ZM131.978 25.2008C130.88 25.2008 130.05 24.9197 129.488 24.3576C128.939 23.7955 128.665 23.0058 128.665 21.9887V15.9259H126.758V14.36H128.665V11.69H130.572V14.36H133.162V15.9259H130.572V21.9887C130.572 22.524 130.719 22.9188 131.014 23.1731C131.308 23.414 131.737 23.5345 132.299 23.5345C132.593 23.5345 132.874 23.5144 133.142 23.4743C133.41 23.4341 133.543 23.414 133.543 23.414V25.0402C133.543 25.0402 133.39 25.0669 133.082 25.1205C132.774 25.174 132.406 25.2008 131.978 25.2008Z" fill="white"/>
<defs>
<clipPath id="clip0_7115_30460">
<rect width="25.7685" height="27" fill="white" transform="translate(0.615723 4)"/>
</clipPath>
</defs>
</svg>
